<svg width="250" height="73" viewBox="0 0 250 73" fill="none" xmlns="http://www.w3.org/2000/svg">
<path d="M105.762 21.4821C109.319 21.4821 111.097 19.7766 111.097 16.3658C111.097 14.5311 110.644 13.2378 109.739 12.4779C108.834 11.7261 107.508 11.3465 105.762 11.3465H92.4738L92.4818 22.9372C93.581 22.2906 94.7045 21.8863 95.8523 21.7248C97.0001 21.5633 98.1722 21.4824 99.3682 21.4824H105.762L105.762 21.4821ZM87.1877 42.1902V6.01147H105.794C107.379 6.01147 108.826 6.24589 110.143 6.71473C111.452 7.18356 112.568 7.86251 113.489 8.75158C114.419 9.64064 115.13 10.7238 115.631 12.0008C116.132 13.2778 116.383 14.7246 116.383 16.3412C116.383 17.9579 116.132 19.4047 115.631 20.6817C115.13 21.9586 114.419 23.0581 113.489 23.9795C112.568 24.9009 111.452 25.6041 110.135 26.0892C108.826 26.5741 107.379 26.8168 105.786 26.8168H99.3765C98.2045 26.8168 97.0407 26.9137 95.8766 27.1078C94.7128 27.3019 93.573 27.6899 92.4738 28.2719V42.1905H87.1877V42.1902Z" fill="#252A34"/>
<path d="M133.382 5.38123H139.201L156.611 42.1903H150.695L148.318 36.9042H137.309C135.661 36.9042 134.197 37.0174 132.92 37.2439C131.643 37.4703 130.552 37.7613 129.647 38.1169C128.742 38.4725 128.014 38.8605 127.465 39.281C126.915 39.7012 126.543 40.1055 126.349 40.4934L125.428 42.1909H119.705L135.37 9.84345L133.381 5.38182L133.382 5.38123ZM145.942 31.5695L138.037 16.293L130.035 33.6064C130.682 33.0567 131.749 32.5798 133.236 32.1756C134.723 31.7714 136.728 31.5693 139.25 31.5693H145.943L145.942 31.5695Z" fill="#252A34"/>
<path d="M177.705 11.3464V42.1905H172.564V11.3464H159.664V6.01172H190.46V11.3464H177.705Z" fill="#252A34"/>
<path d="M197.215 42.1905V6.01172H202.404V42.1905H197.215Z" fill="#252A34"/>
<path d="M244.577 23.8343C244.577 21.8621 244.197 20.0516 243.437 18.3864C242.678 16.7295 241.643 15.2907 240.334 14.0783C239.024 12.8659 237.513 11.9362 235.799 11.2736C234.086 10.6109 232.259 10.2793 230.319 10.2793C228.314 10.2793 226.439 10.6189 224.693 11.2979C222.947 11.9768 221.436 12.9305 220.159 14.1755C218.882 15.4202 217.879 16.8913 217.152 18.5805C216.424 20.2781 216.061 22.1371 216.061 24.1739C216.061 26.1139 216.449 27.9083 217.224 29.5732C218 31.2302 219.051 32.661 220.377 33.8571C221.702 35.0534 223.222 35.9828 224.936 36.6618C226.649 37.3407 228.46 37.6803 230.367 37.6803C232.307 37.6803 234.142 37.3247 235.872 36.6135C237.602 35.9022 239.105 34.9322 240.382 33.6875C241.659 32.4428 242.678 30.9797 243.437 29.3065C244.197 27.6253 244.577 25.8066 244.577 23.8343ZM249.863 24.1496C249.863 26.8331 249.338 29.3225 248.287 31.6181C247.236 33.9137 245.814 35.9019 244.036 37.5831C242.258 39.2643 240.188 40.5899 237.82 41.5599C235.46 42.5299 232.962 43.0147 230.343 43.0147C227.595 43.0147 225.033 42.5136 222.673 41.5113C220.305 40.509 218.252 39.1348 216.506 37.389C214.76 35.6432 213.378 33.582 212.375 31.2056C211.373 28.8291 210.872 26.2831 210.872 23.5673C210.872 20.9161 211.398 18.4507 212.448 16.1715C213.499 13.8922 214.93 11.9199 216.724 10.2547C218.519 8.5898 220.604 7.28821 222.964 6.35084C225.324 5.41317 227.806 4.94434 230.392 4.94434C233.076 4.94434 235.606 5.43747 237.966 6.42344C240.334 7.40942 242.395 8.76732 244.157 10.4971C245.92 12.227 247.318 14.2555 248.336 16.5834C249.355 18.9113 249.864 21.433 249.864 24.149L249.863 24.1496Z" fill="#252A34"/>
<path d="M87.1877 64.8547V49.5005H89.39V64.8547H87.1877Z" fill="#252A34"/>
<path d="M92.4614 49.5005H95.3633L105.222 61.2323V49.5005H107.466V64.8547H105.246L96.4542 54.2961V64.8547H94.252V51.6615L92.4614 49.5005Z" fill="#252A34"/>
<path d="M119.757 60.5735L114.55 54.2961V64.8547H112.348V51.6615L110.557 49.5005H113.459L119.737 57.0335L126.096 49.5005H128.999L127.208 51.6615V64.8547H125.006V54.2961L119.757 60.5735Z" fill="#252A34"/>
<path d="M145.345 57.0643C145.345 56.2274 145.184 55.459 144.862 54.7521C144.539 54.0489 144.1 53.4384 143.545 52.9239C142.989 52.4095 142.347 52.015 141.62 51.7335C140.893 51.4522 140.117 51.3115 139.294 51.3115C138.443 51.3115 137.648 51.4555 136.907 51.7438C136.166 52.0319 135.524 52.4367 134.982 52.9651C134.44 53.4932 134.015 54.1177 133.706 54.8345C133.397 55.555 133.243 56.3439 133.243 57.2083C133.243 58.0316 133.408 58.7932 133.737 59.4998C134.066 60.203 134.512 60.8102 135.075 61.3179C135.637 61.8256 136.282 62.22 137.009 62.5081C137.737 62.7961 138.505 62.9402 139.314 62.9402C140.138 62.9402 140.916 62.7893 141.651 62.4873C142.385 62.1853 143.023 61.7737 143.565 61.2456C144.107 60.7172 144.539 60.0963 144.861 59.3863C145.184 58.6726 145.345 57.9009 145.345 57.064L145.345 57.0643ZM147.589 57.198C147.589 58.3369 147.366 59.3934 146.92 60.3675C146.474 61.3416 145.87 62.1856 145.116 62.899C144.361 63.6126 143.483 64.1751 142.478 64.5867C141.476 64.9983 140.416 65.2043 139.305 65.2043C138.139 65.2043 137.051 64.9915 136.049 64.5662C135.044 64.141 134.173 63.5577 133.432 62.8169C132.691 62.076 132.105 61.2011 131.679 60.1926C131.254 59.1841 131.041 58.1036 131.041 56.9511C131.041 55.8258 131.264 54.7797 131.71 53.8124C132.156 52.8451 132.763 52.0082 133.524 51.3014C134.286 50.5949 135.171 50.0425 136.173 49.6445C137.174 49.2465 138.227 49.0476 139.325 49.0476C140.464 49.0476 141.538 49.2568 142.539 49.6753C143.544 50.0937 144.419 50.6702 145.167 51.4042C145.914 52.1383 146.508 52.9992 146.94 53.9873C147.372 54.9753 147.589 56.0454 147.589 57.198H147.589Z" fill="#252A34"/>
<path d="M153.192 56.471C153.658 56.2001 154.132 56.0318 154.619 55.9634C155.106 55.8949 155.599 55.8605 156.107 55.8605H158.735C159.431 55.8605 159.987 55.6857 160.395 55.3321C160.806 54.9821 161.012 54.4472 161.012 53.7303C161.012 52.9995 160.8 52.4886 160.374 52.2005C159.952 51.9089 159.404 51.7649 158.735 51.7649H153.191V56.4713L153.192 56.471ZM153.192 62.5907H158.961C159.263 62.5907 159.582 62.5463 159.915 62.4571C160.251 62.3679 160.557 62.2307 160.831 62.049C161.102 61.8638 161.328 61.6306 161.507 61.3526C161.685 61.0713 161.774 60.7385 161.774 60.3577C161.774 59.9084 161.685 59.538 161.507 59.2496C161.328 58.9648 161.095 58.7384 160.81 58.5739C160.522 58.4127 160.196 58.296 159.833 58.2275C159.473 58.1591 159.105 58.1247 158.735 58.1247H156.107C155.613 58.1247 155.123 58.1659 154.629 58.2483C154.135 58.3306 153.658 58.4919 153.192 58.7387V62.591V62.5907ZM164.018 60.663C164.018 61.4314 163.863 62.0763 163.555 62.6044C163.246 63.1325 162.838 63.5649 162.337 63.8977C161.836 64.2337 161.27 64.4773 160.635 64.6282C160.004 64.779 159.373 64.8546 158.742 64.8546H150.948V49.5007H158.728C159.373 49.5007 159.974 49.5932 160.529 49.7787C161.085 49.9639 161.565 50.2348 161.97 50.5952C162.375 50.952 162.691 51.3909 162.917 51.9125C163.144 52.4338 163.257 53.0342 163.257 53.7066C163.257 54.3651 163.14 54.9655 162.907 55.5007C162.673 56.036 162.33 56.4509 161.878 56.7392C162.142 56.8628 162.403 57.0376 162.667 57.2605C162.931 57.4869 163.161 57.7646 163.353 58.0941C163.548 58.4234 163.706 58.8007 163.83 59.2262C163.956 59.6482 164.018 60.1283 164.018 60.6635L164.018 60.663Z" fill="#252A34"/>
<path d="M167.583 64.8547V49.5005H169.785V64.8547H167.583Z" fill="#252A34"/>
<path d="M174.194 64.8547V49.5005H176.438V62.5905H184.959V64.8547H174.194Z" fill="#252A34"/>
<path d="M187.516 64.8547V49.5005H189.718V64.8547H187.516Z" fill="#252A34"/>
<path d="M198.079 49.2328H200.549L207.937 64.8543H205.426L204.418 62.6109H199.746C199.046 62.6109 198.425 62.6589 197.883 62.7549C197.341 62.8509 196.878 62.9745 196.494 63.1253C196.11 63.2762 195.801 63.4409 195.568 63.6194C195.335 63.7978 195.177 63.9694 195.094 64.1338L194.703 64.8543H192.275L198.922 51.1262L198.079 49.2328ZM203.409 60.347L200.055 53.8636L196.659 61.2115C196.933 60.9782 197.386 60.7758 198.017 60.6042C198.648 60.4326 199.499 60.347 200.569 60.347H203.41H203.409Z" fill="#252A34"/>
<path d="M212.943 56.8346C213.41 56.5567 213.883 56.3854 214.363 56.3234C214.844 56.2618 215.338 56.231 215.845 56.231H218.768C219.55 56.231 220.181 56.0457 220.661 55.6786C221.141 55.3114 221.382 54.7216 221.382 53.9052C221.382 53.5107 221.313 53.1779 221.176 52.907C221.039 52.6362 220.853 52.413 220.62 52.245C220.387 52.0734 220.112 51.9534 219.797 51.8778C219.481 51.8022 219.138 51.7646 218.768 51.7646H212.943V56.8346H212.943ZM217.646 58.4948H215.852C215.355 58.4948 214.864 58.5325 214.377 58.608C213.89 58.6836 213.41 58.8448 212.943 59.0917V64.8546H210.7V49.5007H218.782C219.482 49.5007 220.126 49.6003 220.72 49.7992C221.31 49.998 221.821 50.2896 222.253 50.674C222.689 51.0581 223.025 51.5317 223.265 52.0941C223.505 52.6566 223.625 53.3015 223.625 54.0287C223.625 55.1952 223.31 56.1486 222.682 56.8898C222.051 57.6306 221.18 58.1383 220.065 58.4127L221.258 60.8618C221.509 61.2186 221.722 61.5067 221.903 61.7263C222.082 61.9459 222.257 62.1207 222.421 62.2511C222.586 62.3815 222.761 62.4707 222.939 62.5187C223.121 62.5667 223.334 62.5907 223.584 62.5907L224.305 62.5703V64.8549C223.866 64.8549 223.423 64.8413 222.977 64.8137C222.528 64.7861 222.099 64.6972 221.688 64.5461C221.276 64.3953 220.882 64.1549 220.511 63.8257C220.141 63.4964 219.811 63.0299 219.523 62.426L217.647 58.4948H217.646Z" fill="#252A34"/>
<path d="M227.87 64.8547V49.5005H230.072V64.8547H227.87Z" fill="#252A34"/>
<path d="M247.757 57.0643C247.757 56.2274 247.595 55.459 247.273 54.7521C246.951 54.0489 246.511 53.4384 245.956 52.9239C245.4 52.4095 244.758 52.015 244.031 51.7335C243.304 51.4522 242.529 51.3115 241.705 51.3115C240.855 51.3115 240.059 51.4555 239.318 51.7438C238.577 52.0319 237.935 52.4367 237.393 52.9651C236.851 53.4932 236.426 54.1177 236.117 54.8345C235.808 55.555 235.654 56.3439 235.654 57.2083C235.654 58.0316 235.819 58.7932 236.148 59.4998C236.477 60.203 236.923 60.8102 237.486 61.3179C238.048 61.8256 238.693 62.22 239.42 62.5081C240.148 62.7961 240.916 62.9402 241.725 62.9402C242.549 62.9402 243.328 62.7893 244.062 62.4873C244.796 62.1853 245.434 61.7737 245.976 61.2456C246.518 60.7172 246.95 60.0963 247.272 59.3863C247.595 58.6726 247.756 57.9009 247.756 57.064L247.757 57.0643ZM250 57.198C250 58.3369 249.777 59.3934 249.331 60.3675C248.885 61.3416 248.281 62.1856 247.527 62.899C246.772 63.6126 245.894 64.1751 244.889 64.5867C243.887 64.9983 242.827 65.2043 241.716 65.2043C240.55 65.2043 239.462 64.9915 238.461 64.5662C237.456 64.141 236.584 63.5577 235.843 62.8169C235.102 62.076 234.516 61.2011 234.09 60.1926C233.665 59.1841 233.452 58.1036 233.452 56.9511C233.452 55.8258 233.675 54.7797 234.121 53.8124C234.567 52.8451 235.174 52.0082 235.936 51.3014C236.697 50.5949 237.582 50.0425 238.584 49.6445C239.586 49.2465 240.638 49.0476 241.736 49.0476C242.875 49.0476 243.949 49.2568 244.95 49.6753C245.955 50.0937 246.83 50.6702 247.578 51.4042C248.326 52.1383 248.919 52.9992 249.351 53.9873C249.783 54.9753 250 56.0454 250 57.198H250Z" fill="#252A34"/>
<path fill-rule="evenodd" clip-rule="evenodd" d="M6.44861 69.6579C3.52981 67.4361 0.460175 63.3676 0.0696443 57.7295L0.0693491 57.7291C-0.0258132 56.3538 -0.00136324 53.1494 0.0173401 50.6982C0.0237579 49.8571 0.029499 49.1047 0.029499 48.5453V20.8567C0.029499 20.3664 0.0242886 19.8716 0.0190565 19.3747C-0.00659515 16.9385 -0.0327699 14.4526 0.551978 12.2087C1.73981 7.65033 4.56946 4.17114 8.52111 1.9378C10.4741 0.834142 13.059 0.0938313 15.6773 0.047543C19.6763 -0.0228698 23.7176 -0.000325017 27.7475 0.0221565C29.726 0.0331934 31.7017 0.044215 33.6683 0.044215H51.6566C52.2946 0.044215 52.913 0.0378549 53.515 0.0316635C58.3356 -0.0179197 62.1041 -0.0566809 66.4773 3.26867C69.4009 5.49141 72.4779 9.53453 72.8743 15.2059C72.9699 16.5752 72.9457 19.7834 72.9272 22.227C72.921 23.058 72.9153 23.8005 72.9153 24.3522V52.0408C72.9153 52.4294 72.9166 52.8097 72.9178 53.1826C72.935 58.4676 72.9474 62.2668 69.3643 66.8316C67.0716 69.7529 62.9082 72.7916 57.274 72.8948C53.2761 72.9681 49.2327 72.9446 45.2014 72.9213C43.2243 72.9098 41.2501 72.8984 39.2857 72.8984H21.2974C20.6793 72.8984 20.0817 72.9035 19.5017 72.9085C14.5119 72.9511 10.8162 72.9827 6.44861 69.6579ZM40.9732 34.9386L40.9622 50.1483V50.1489C41.0208 51.5275 39.932 52.7556 39.2968 53.2718C38.2152 54.1508 37.1538 54.2323 35.4607 54.2323H21.1111C19.3062 54.2323 18.47 54.2181 17.2209 53.3249C16.4522 52.7752 15.6447 51.6613 15.4794 50.3097C15.38 49.4981 15.4174 41.8464 15.4362 38.0142C15.4408 37.0666 15.4443 36.3525 15.4443 36.0332C15.4443 34.9886 15.4369 33.936 15.4294 32.881C15.4144 30.7499 15.3992 28.609 15.4452 26.5049C15.4761 25.0902 16.1566 23.875 16.9274 23.2149C17.6136 22.6271 22.1277 20.383 24.7264 19.0911C25.4544 18.7292 26.0322 18.442 26.3332 18.2869C27.4088 17.7328 28.4787 17.1925 29.5465 16.6533C30.5875 16.1276 31.6266 15.6029 32.6671 15.0673C32.7247 15.0377 32.7815 15.0084 32.8375 14.9795C35.8984 13.4029 36.5378 13.0736 39.7821 14.7578C41.8573 15.8353 43.9354 16.8918 46.0137 17.9485C48.1486 19.0339 50.2837 20.1195 52.4164 21.228C52.7749 21.4143 53.1323 21.5863 53.4819 21.7545C55.3532 22.6549 57.0026 23.4485 57.4185 25.7719C57.5674 26.6028 57.5346 28.0891 57.5076 29.3137C57.4981 29.7427 57.4893 30.1395 57.4893 30.4648V54.2323H48.507L48.5016 29.324C48.2925 29.1209 40.3427 25.0712 39.4675 24.6619C37.3771 23.6845 36.9255 23.2025 36.4788 23.207C36.0238 23.2116 35.5739 23.721 33.4025 24.7259C32.8276 24.9921 32.2636 25.2921 31.6991 25.5924C31.2618 25.825 30.8242 26.0578 30.381 26.2751C29.5859 26.6649 28.7901 27.0745 27.9892 27.4869C27.7758 27.5967 27.5621 27.7067 27.3479 27.8166C27.2572 27.8631 27.0808 27.9467 26.8576 28.0524C26.0225 28.448 24.5323 29.1538 24.427 29.391L24.4302 45.2866L32.0306 45.2872L32.0217 34.9584L40.9732 34.9386Z" fill="#FF2E63"/>
</svg>
